# xmcd
#
# Track frame offsets:
#	182
#	13795
#	23707
#	37290
#	51815
#	64692
#	80475
#	94292
#	109175
#	121185
#	131087
#	140597
#	154302
#	169285
#	181330
#	195532
#	208477
#	220360
#
# Disc length: 3086 seconds
#
# Revision: 0
# Processed by: cddbd v1.4PL0 Copyright (c) Steve Scherf et al.
# Submitted via: EasyCDDAExtractor 4.5.2.1
#
DISCID=130c0c12
DTITLE=Howlin' Wolf - Jazz and Blues Collection - CD 74 
DYEAR=1900
DGENRE=Blues
TTITLE0=California Boogie
TTITLE1=Look A Here Baby
TTITLE2=Everybody's In The Mood
TTITLE3=Color And Kind
TTITLE4=Blue Bird
TTITLE5=Sweet Woman
TTITLE6=Well That's Alright
TTITLE7=Decoration Day
TTITLE8=Dorothy Mae
TTITLE9=Come Back Home
TTITLE10=Smile At Me
TTITLE11=My Baby Walked Off
TTITLE12=My Troubles And Me
TTITLE13=Chocolate Drop
TTITLE14=Drinkin' C.V. Wine
TTITLE15=How Many More Years
TTITLE16=Baby Ride With Me
TTITLE17=How Many More Years (bis)
EXTD=
EXTT0=
EXTT1=
EXTT2=
EXTT3=
EXTT4=
EXTT5=
EXTT6=
EXTT7=
EXTT8=
EXTT9=
EXTT10=
EXTT11=
EXTT12=
EXTT13=
EXTT14=
EXTT15=
EXTT16=
EXTT17=
PLAYORDER=
